<svg width="88" height="20" viewBox="0 0 88 20" fill="none" xmlns="http://www.w3.org/2000/svg">
<path d="M32.9587 0.6224C31.0437 0.867683 27.8521 1.65259 25.8916 2.33938C22.0161 3.76202 0.222254 15.2903 0.222254 15.9281C0.222254 16.5658 -0.142497 16.713 8.88509 12.2488C18.0951 7.73561 25.4813 4.49787 28.0345 3.86014C30.9525 3.12429 39.0226 2.78089 39.5698 3.36957C39.7066 3.5658 38.6579 4.49787 37.2445 5.52806C30.0862 10.4828 28.4905 17.9394 34.3721 19.0186C37.1533 19.5092 40.7096 18.479 47.2751 15.2903C54.8437 11.562 57.4882 10.6299 62.7771 9.69787C68.1115 8.7658 71.2575 8.7658 74.905 9.69787C79.0085 10.7281 82.5192 12.7884 86.0755 16.2715C86.7594 16.9583 87.3066 17.2526 87.3066 16.9583C87.3066 16.1243 83.3399 12.5432 80.3763 10.679C77.1391 8.61863 70.756 6.21485 66.6069 5.52806C60.4974 4.49787 51.2418 6.50919 45.1778 10.2375C44.1292 10.8752 43.1717 11.4149 42.9893 11.4149C42.8069 11.4149 43.0805 10.4828 43.5364 9.30542C44.7675 6.46014 44.6763 4.44882 43.3085 2.68278C41.6671 0.573345 38.5667 -0.0153351 32.9587 0.6224Z" fill="white"/>
</svg>
